,
.   http://www.scenetime.com/signup.php  ---&gt;  Hottest scene tracker on the net !!!  

    Join Now   http://www.scenetime.com/signup.php

    seed back for speed


 



...................................NFO:.................................................                                                                                                     
       
     
     
       
       
     
     
                                         
                                         
                EXVID                    
                                         
         
                                         
         Filled the Archives             
                                         
         
                                         
                With:                    
                                         
         
                                         
                                    
     E240                           
                                    
     SP               (C) 2009      
                                         
     
     
     
                                                                                  
                                                                                   
                   The.Mist.2007.DC.DVDRip.XviD-EXViD                               
                                                                                   
                                                                                  
     
                                                                                               
EXViD aims to iNTERNAL those releases which have been lost in the archives.
EXViD aims to PRE non-internal releases which have poor sources and are likely skipped by others.
 
http://www.imdb.com/title/tt0884328/
Subtitles: EN, ES
Date: 2011.10

Director: Frank Darabont

Genre: Horror | Sci-Fi | Thriller

Plot:
A freak storm unleashes a species of blood-thirsty creatures on a small town, where a small
band of citizens hole-up in a supermarket and fight for their lives.

Cast:
Thomas Jane 	 ... 	 David Drayton
Marcia Gay Harden 	 ... 	 Mrs. Carmody
Laurie Holden 	 ... 	 Amanda Dunfrey
Andre Braugher 	 ... 	 Brent Norton
Toby Jones 	 ... 	 Ollie Weeks
William Sadler 	 ... 	 Jim
Jeffrey DeMunn 	 ... 	 Dan Miller
Frances Sternhagen 	 ... 	 Irene Reppler
Nathan Gamble 	 ... 	 Billy Drayton
Alexa Davalos 	 ... 	 Sally
Chris Owen 	 ... 	 Norm
Sam Witwer 	 ... 	 Private Jessup
Robert C. Treveiler 	 ... 	 Bud Brown (as Robert Treveiler)
David Jensen 	 ... 	 Myron
Melissa Suzanne McBride 	 ... 	 Woman With Kids at Home (as Melissa McBride)

Stats:
Format                           : AVI
Format/Info                      : Audio Video Interleave
File size                        : 1.37 GiB
Duration                         : 2h 5mn
Overall bit rate                 : 1 555 Kbps
Writing application              : Nandub v1.0rc2
Writing library                  : Nandub build 1852/release

Video
ID                               : 0
Format                           : MPEG-4 Visual
Format profile                   : Advanced Simple@L5
Format settings, BVOP            : 2
Format settings, QPel            : No
Format settings, GMC             : No warppoints
Format settings, Matrix          : Default (H.263)
Codec ID                         : XVID
Codec ID/Hint                    : XviD
Duration                         : 2h 5mn
Bit rate                         : 1 100 Kbps
Width                            : 624 pixels
Height                           : 336 pixels
Display aspect ratio             : 1.857
Frame rate                       : 23.976 fps
Color space                      : YUV
Chroma subsampling               : 4:2:0
Bit depth                        : 8 bits
Scan type                        : Progressive
Compression mode                 : Lossy
Bits/(Pixel*Frame)               : 0.219
Stream size                      : 991 MiB (71%)
Writing library                  : XviD 64

Audio
ID                               : 1
Format                           : AC-3
Format/Info                      : Audio Coding 3
Mode extension                   : CM (complete main)
Codec ID                         : 2000
Duration                         : 2h 5mn
Bit rate mode                    : Constant
Bit rate                         : 448 Kbps
Channel(s)                       : 6 channels
Channel positions                : Front: L C R, Side: L R, LFE
Sampling rate                    : 48.0 KHz
Bit depth                        : 16 bits
Compression mode                 : Lossy
Stream size                      : 404 MiB (29%)
Alignment                        : Aligned on interleaves
Interleave, duration             : 96 ms (2.30 video frames)
Interleave, preload duration     : 96 ms




Release notes:
DiAMOND did the THEATRiCAL cut, this is the DC (B&W version as envisioned by the director).

enjoy!

Looking for:
75TB+ Archives
DUTCH/FLEMiSH Archives
                                                                                                    
Greets: CRBS EPiSODE FiCO FLS iLS KLASSiGER LiPSYNC MADE NODLABS RUNNER SPRiNTER      
   

                                                                    ASCII DONE BY XX^NFO 2oo9